<?xml version="1.0" encoding="UTF-8" standalone="no"?>
<svg
   xmlns:dc="http://purl.org/dc/elements/1.1/"
   xmlns:cc="http://creativecommons.org/ns#"
   xmlns:rdf="http://www.w3.org/1999/02/22-rdf-syntax-ns#"
   xmlns:svg="http://www.w3.org/2000/svg"
   xmlns="http://www.w3.org/2000/svg"
   xmlns:sodipodi="http://sodipodi.sourceforge.net/DTD/sodipodi-0.dtd"
   xmlns:inkscape="http://www.inkscape.org/namespaces/inkscape"
   width="280"
   height="90"
   viewBox="0 0 74.083332 22.489585"
   version="1.1"
   id="svg8"
   sodipodi:docname="scope.svg"
   inkscape:version="1.0 (4035a4fb49, 2020-05-01)">
  <defs
     id="defs2" />
  <sodipodi:namedview
     showborder="false"
     id="base"
     pagecolor="#ffffff"
     bordercolor="#666666"
     borderopacity="1.0"
     inkscape:pageopacity="0.0"
     inkscape:pageshadow="2"
     inkscape:zoom="4"
     inkscape:cx="127.38746"
     inkscape:cy="43.07299"
     inkscape:document-units="mm"
     inkscape:current-layer="text12"
     inkscape:document-rotation="0"
     showgrid="false"
     units="px"
     inkscape:window-width="1920"
     inkscape:window-height="1017"
     inkscape:window-x="1912"
     inkscape:window-y="-8"
     inkscape:window-maximized="1" />
  <metadata
     id="metadata5">
    <rdf:RDF>
      <cc:Work
         rdf:about="">
        <dc:format>image/svg+xml</dc:format>
        <dc:type
           rdf:resource="http://purl.org/dc/dcmitype/StillImage" />
        <dc:title></dc:title>
      </cc:Work>
    </rdf:RDF>
  </metadata>
  <g
     inkscape:label="Layer 1"
     inkscape:groupmode="layer"
     id="layer1">
    <g
       aria-label="{Scope}"
       id="text12"
       style="font-style:normal;font-weight:normal;font-size:22.5778px;line-height:1.25;font-family:sans-serif;fill:#000000;fill-opacity:1;stroke:none;stroke-width:0.264583;image-rendering:auto">
      <path
         d="m 0,10.160531 q 0.97216478,0 1.5024357,-0.4754106 Q 2.0437536,9.2097089 2.0437536,8.3583916 V 4.2234203 q 0,-2.0122043 1.19311,-3.1178127 Q 4.4299745,0 6.6062953,0 v 2.5318417 q -0.8948331,0 -1.3809141,0.4754115 Q 4.7392993,3.4826639 4.7392993,4.3560934 V 8.75641 q 0,1.901645 -1.1820629,2.73085 Q 2.3862205,12.30541 0,12.30541 Z M 6.6062953,23.01875 q -2.1763208,0 -3.3694317,-1.105608 -1.19311,-1.094551 -1.19311,-3.106758 v -4.14603 q 0,-0.851317 -0.5413179,-1.326729 Q 0.97216478,12.858214 0,12.858214 v -2.144879 q 2.3862205,0 3.5572364,0.862374 1.1820629,0.851318 1.1820629,2.8193 v 4.25659 q 0,0.884486 0.4860819,1.359898 0.486081,0.475411 1.3809141,0.475411 z"
         style="font-style:normal;font-variant:normal;font-weight:bold;font-stretch:normal;font-size:22.5778px;font-family:Bahnschrift;-inkscape-font-specification:'Bahnschrift Bold';fill:#a02c2c;stroke-width:0.26524"
         id="path25" />
      <path
         d="m 12.604989,19.174602 q -1.148922,0 -2.253653,-0.232178 Q 9.257651,18.710247 8.2854878,18.268003 7.324371,17.814704 6.5621062,17.184508 v 0 L 7.965115,14.685835 v 0 q 0.9279748,0.762868 2.14318,1.182999 1.215205,0.409075 2.496694,0.409075 1.480341,0 2.297843,-0.497523 0.817502,-0.50858 0.817502,-1.426234 V 14.3431 q 0,-0.641253 -0.364562,-1.017159 -0.364561,-0.375907 -0.95007,-0.552804 -0.585508,-0.176897 -1.502435,-0.320626 -0.03314,-0.01106 -0.06629,-0.01106 -0.0221,0 -0.05523,-0.01105 l -0.243041,-0.03316 Q 10.925796,12.142937 9.8652536,11.76703 8.8047108,11.380067 8.064541,10.429245 7.324371,9.4673658 7.324371,7.709451 V 7.698389 q 0,-1.5589054 0.695981,-2.664513 0.695981,-1.1056075 2.021659,-1.6805228 1.325678,-0.585972 3.203723,-0.585972 0.86169,0 1.756524,0.1990097 0.90588,0.1990084 1.767572,0.574915 0.861691,0.3759069 1.635003,0.9065981 v 0 l -1.281489,2.5650091 v 0 Q 16.195368,6.3716605 15.179015,6.0178664 14.173708,5.664072 13.245734,5.664072 q -1.391963,0 -2.154228,0.464355 -0.762265,0.4532989 -0.762265,1.2825044 v 0.011052 q 0,0.6965326 0.397704,1.1056075 0.397703,0.3980181 0.983211,0.585972 0.585509,0.187953 1.646051,0.3980181 0.04419,0.011062 0.08837,0.022114 0.04419,0 0.08838,0.011052 0.06629,0.011062 0.12152,0.033165 0.06629,0.011052 0.132568,0.022113 1.524531,0.2985133 2.540884,0.729701 1.027402,0.420131 1.712335,1.370953 0.684934,0.939767 0.684934,2.576066 v 0.02211 q 0,1.536795 -0.718076,2.631347 -0.718075,1.094552 -2.098991,1.669468 -1.369867,0.574916 -3.303149,0.574916 z"
         style="font-style:normal;font-variant:normal;font-weight:bold;font-stretch:normal;font-size:22.5778px;font-family:Bahnschrift;-inkscape-font-specification:'Bahnschrift Bold';fill:#1a1a1a;stroke-width:0.26524"
         id="path27" />
      <path
         d="m 26.104817,18.64391 q -1.635004,0 -2.806021,-0.61914 -1.159968,-0.630197 -1.76757,-1.824253 -0.607604,-1.194056 -0.607604,-2.87458 v -1.227224 q 0,-1.669468 0.607604,-2.8414123 0.607602,-1.1829999 1.76757,-1.8021392 1.171017,-0.6191404 2.806021,-0.6191404 0.939022,0 1.767571,0.2211213 0.839596,0.2100651 1.502435,0.6191403 0.66284,0.4090749 1.104733,0.9950459 v 0 L 28.52418,10.572973 v 0 Q 28.104382,10.186011 27.540968,9.9759455 26.977555,9.7548236 26.358905,9.7548236 q -1.148922,0 -1.778619,0.6191404 -0.629697,0.608085 -0.629697,1.724749 v 1.227224 q 0,1.149832 0.629697,1.780029 0.629697,0.61914 1.778619,0.61914 0.629697,0 1.19311,-0.232178 0.563414,-0.232178 0.972165,-0.663364 v 0 l 1.955376,2.012206 v 0 q -0.45294,0.574916 -1.11578,0.983991 -0.662839,0.398018 -1.491388,0.608084 -0.828549,0.210065 -1.767571,0.210065 z"
         style="font-style:normal;font-variant:normal;font-weight:bold;font-stretch:normal;font-size:22.5778px;font-family:Bahnschrift;-inkscape-font-specification:'Bahnschrift Bold';fill:#1a1a1a;stroke-width:0.26524"
         id="path29" />
      <path
         d="m 37.141092,18.64391 q -1.56872,0 -2.684499,-0.585972 -1.104732,-0.585971 -1.69024,-1.702635 -0.574462,-1.127721 -0.574462,-2.70874 v -1.868478 q 0,-1.558906 0.574462,-2.6645132 0.585508,-1.1166633 1.69024,-1.6915786 1.115779,-0.5859721 2.684499,-0.5859721 1.568719,0 2.673452,0.5859721 1.115779,0.5749153 1.690241,1.6915786 0.585507,1.1056072 0.585507,2.6645132 v 1.901646 q 0,1.569963 -0.585507,2.686627 -0.574462,1.105609 -1.690241,1.69158 -1.104733,0.585972 -2.673452,0.585972 z m -0.01104,-2.918804 q 0.916927,0 1.425104,-0.530692 0.508177,-0.541748 0.508177,-1.514683 v -1.901646 q 0,-0.961878 -0.508177,-1.492569 -0.508177,-0.5306924 -1.425104,-0.5306924 -0.905881,0 -1.414057,0.5306924 -0.49713,0.530691 -0.49713,1.492569 v 1.901646 q 0,0.972935 0.49713,1.514683 0.497129,0.530692 1.414057,0.530692 z"
         style="font-style:normal;font-variant:normal;font-weight:bold;font-stretch:normal;font-size:22.5778px;font-family:Bahnschrift;-inkscape-font-specification:'Bahnschrift Bold';fill:#1a1a1a;stroke-width:0.26524"
         id="path31" />
      <path
         d="m 44.85212,7.0018626 h 3.026967 V 21.55166 H 44.85212 Z M 50.541491,18.64391 c -0.670205,0 -1.248348,-0.169526 -1.73443,-0.508579 -0.486082,-0.346424 -0.846962,-0.832892 -1.082638,-1.459402 l 0.154664,-2.620291 c 0,0.375907 0.06629,0.696533 0.198851,0.961878 0.132568,0.265347 0.324054,0.468042 0.574461,0.608085 0.257771,0.140044 0.567096,0.210066 0.927974,0.210066 0.567096,0 1.005307,-0.187953 1.314632,-0.56386 0.31669,-0.375907 0.475035,-0.906599 0.475035,-1.592076 v -1.824252 c 0,-0.700219 -0.158345,-1.241966 -0.475035,-1.625244 -0.309325,-0.3906479 -0.747536,-0.585972 -1.314632,-0.585972 -0.360878,0 -0.670203,0.073712 -0.927974,0.2211222 -0.250407,0.1400428 -0.441893,0.3464228 -0.574461,0.6191388 -0.132567,0.272717 -0.198851,0.6044 -0.198851,0.995048 L 47.647092,8.9366746 c 0.309326,-0.6707353 0.714394,-1.1866852 1.215206,-1.5478497 0.508177,-0.3685354 1.067908,-0.5528038 1.679193,-0.5528038 0.810137,0 1.502435,0.1953242 2.076897,0.5859721 0.581825,0.3906469 1.023718,0.9618776 1.325678,1.7136911 0.30196,0.7518125 0.45294,1.6547247 0.45294,2.7087377 v 1.835309 c 0,1.046642 -0.15098,1.942185 -0.45294,2.686627 -0.30196,0.737073 -0.743853,1.300933 -1.325678,1.69158 -0.574462,0.390648 -1.26676,0.585972 -2.076897,0.585972 z"
         style="font-style:normal;font-variant:normal;font-weight:bold;font-stretch:normal;font-size:22.5778px;font-family:Bahnschrift;-inkscape-font-specification:'Bahnschrift Bold';fill:#a02c2c;stroke-width:0.26524"
         id="path33"
         sodipodi:nodetypes="cccccscccscscsscscscccscsssccs" />
      <path
         d="m 62.096991,18.64391 q -1.657099,0 -2.839162,-0.597028 -1.171016,-0.608084 -1.789666,-1.757916 -0.61865,-1.160889 -0.61865,-2.786132 v -1.293561 q 0,-1.702636 0.585508,-2.9077483 0.596555,-1.2051114 1.723382,-1.8353075 1.137874,-0.6301961 2.739736,-0.6301961 1.502436,0 2.574026,0.7518125 1.071589,0.7518132 1.623956,2.1891025 0.563413,1.4262339 0.563413,3.4494959 v 0.751813 h -7.843599 v -2.045374 h 5.081769 l -0.03314,-0.265346 q -0.12152,-0.995047 -0.629698,-1.536795 -0.497129,-0.5417468 -1.336725,-0.5417468 -1.093685,0 -1.701288,0.6523078 -0.596555,0.652309 -0.596555,1.846365 v 1.459402 q 0,1.171945 0.651792,1.813197 0.662839,0.641252 1.844903,0.641252 0.607602,0 1.204157,-0.210065 0.596556,-0.221121 1.082638,-0.61914 v 0 l 1.977471,1.757916 v 0 q -0.894834,0.81815 -2.010613,1.271449 -1.11578,0.442243 -2.253653,0.442243 z"
         style="font-style:normal;font-variant:normal;font-weight:bold;font-stretch:normal;font-size:22.5778px;font-family:Bahnschrift;-inkscape-font-specification:'Bahnschrift Bold';fill:#1a1a1a;stroke-width:0.26524"
         id="path35" />
      <path
         d="m 74.083333,12.415971 q -2.386221,0 -3.568284,-0.851318 Q 69.344032,10.713335 69.344032,8.75641 V 4.3560934 q 0,-0.8734295 -0.486082,-1.3488402 Q 68.371868,2.5318417 67.477035,2.5318417 V 0 q 2.176322,0 3.369433,1.1056076 1.193111,1.1056084 1.193111,3.1178127 v 4.024411 q 0,0.851317 0.530272,1.3267285 0.541318,0.4754102 1.513482,0.4754102 z m -6.606298,8.070937 q 0.894833,0 1.380915,-0.475411 0.486082,-0.475412 0.486082,-1.359898 v -4.25659 q 0,-2.023262 1.171017,-2.907749 1.182063,-0.884486 3.568284,-0.884486 v 2.366001 q -0.972164,0 -1.513482,0.475412 -0.530272,0.47541 -0.530272,1.326729 v 4.035468 q 0,2.012207 -1.193111,3.106758 -1.193111,1.105608 -3.369433,1.105608 z"
         style="font-style:normal;font-variant:normal;font-weight:bold;font-stretch:normal;font-size:22.5778px;font-family:Bahnschrift;-inkscape-font-specification:'Bahnschrift Bold';fill:#a02c2c;stroke-width:0.26524"
         id="path37" />
      <path
         id="rect40"
         style="fill:#a02c2c;stroke-width:0.0682528"
         d="m 6.2441592,20.486907 61.4151568,1e-6 V 23.01875 H 6.2441592 Z"
         sodipodi:nodetypes="ccccc" />
    </g>
  </g>
</svg>
